<?xml version="1.0" encoding="utf-8"?>
<!-- Generator: Adobe Illustrator 26.5.0, SVG Export Plug-In . SVG Version: 6.00 Build 0)  -->
<svg version="1.0" id="Layer_1" xmlns="http://www.w3.org/2000/svg" xmlns:xlink="http://www.w3.org/1999/xlink" x="0px" y="0px"
	 viewBox="0 0 612 612" style="enable-background:new 0 0 612 612;" xml:space="preserve">
<style type="text/css">
	.st0{fill-rule:evenodd;clip-rule:evenodd;fill:#0072BB;}
	.st1{fill-rule:evenodd;clip-rule:evenodd;fill:#F58220;}
	.st2{fill-rule:evenodd;clip-rule:evenodd;fill:#FFFFFF;}
	.st3{fill:#FFFFFF;}
	.st4{fill:#F58220;}
</style>
<path class="st0" d="M500.82,179.83c35.81,77.9,28.38,167.87-13.21,234.13c-5.19,8.27-10.74,16.37-16.74,23.81
	c-0.82,1.02-1.39,1.43-2.17,2.49l-17.28,18.81L437,471.75c-52.46,43.37-124.47,58.23-191.27,38.32
	c-26.26-7.82-49.18-20.58-70.03-36.99c-4.48-3.52-12.63-10.33-16.71-14.61l-17.17-18.95c-8.8-11-17.1-22.35-23.92-34.97
	c-6.64-12.29-12.06-24.53-17-38.02C81,312.1,83.5,248.17,104.1,194.37c1.7-4.43,3.72-8.69,5.37-12.89
	c-2.89-3.07-12.74-8.25-16.88-10.79c-4.24-2.6-13.66-7.66-19.06-8.56c-5.33-0.89-5.38,2.25-7.27,6.61
	c-4.42,10.15-7.9,20.62-11.29,31.4l-44.52-8.86c-1.2,9.68-10.96,56.28-10.41,61.08l43.4,8.81c0.26,3.81-0.55,10.53-0.69,14.73
	c-0.54,15.99,0.85,30.88,1.97,46.63c-5.73,0.78-15.45,4.07-21.47,5.71c-4.11,1.12-18.54,4.43-21.15,6.1l14.13,59.85l42.14-11.41
	c1.96,4.27,3.58,10.02,5.53,14.63c3.97,9.38,8.12,19.12,12.93,27.89c2.41,4.41,4.96,8.67,7.17,12.93
	c-2.05,2.45-13.32,11.63-16.63,14.69c-4.89,4.53-12.55,10.09-16.62,14.96l36.75,47.63c1.68-1.12,2.59-2.23,4.19-3.56l28.83-25.37
	l7.54,7.7c1.18,1.06,1.76,1.38,2.87,2.64c1.13,1.28,1.55,1.37,2.66,2.43c8.17,7.72,16.48,14.65,25.72,21.18
	c2.12,1.5,4.51,2.8,6.24,4.49c-2.54,7.08-17.63,37.27-17.82,41.4l52.03,26.53l17.97-40.71c2.99,0.42,9.9,3.26,13.27,4.37
	c14.21,4.64,28.29,7.28,43.14,9.55l-0.48,44.8c5.67,0.42,55.55,1.45,57.89,0.83l0.69-45.01c14.85-2.28,29.05-4.55,43.45-8.7
	c3.02-0.87,11.21-4,13.46-4.11l17.71,40.94l52.51-25.8l-17.6-41.39c8.47-6.42,15.36-10.52,23.94-17.71L479.52,498
	c1.15-0.94,1.59-1.77,2.72-2.77c2.05-1.81,3.36-3.37,5.22-5.27c1.07,0.46,3.22,2.57,4.13,3.47l12.47,11.25
	c2.76,2.47,13.96,13.46,16.75,14.75c0.96-2.02,2.91-3.85,4.4-5.81c0.83-1.1,1.29-1.7,2.23-2.88c0.74-0.94,1.69-2.08,2.44-3.09
	c2.3-3.07,26.54-32.84,27.85-35.96c-3.1-1.94-5.57-4.66-8.32-7.29l-12.27-11.03c-4.06-3.78-8.39-7.27-12.18-11.29
	c7.27-9.55,18.74-34.91,23.6-47.11c0.81-2.04,1.82-5.53,2.88-7.34l42.12,11.92l14.99-60.07l-42.43-12.13
	c1.07-9.94,2.13-19.19,2.54-29.47c0.22-5.39,0.28-10.87,0.2-16.26c-0.07-5.12-0.64-10.78-0.54-15.74l43.64-8.19
	c0.6-5.96-8.72-50.2-9.66-61.16c-7.07,0.77-15.13,2.81-22.3,4.11c-4.37,0.8-18.97,4.18-22.24,3.92c-1.54-6.2-14.2-43.76-17.44-45.91
	C536.04,155.79,503.98,177.27,500.82,179.83"/>
<path class="st0" d="M310.06,94.42c-30.29,0.23-60.67-0.12-90.98-0.33c-15.15-0.11-13.41-1.4-18.28,5.29l-58.14,76.47l8.46-0.21
	l69.08-70.64c1.66,0.84,2.21,1.97,3.66,3.13L383.2,256.33c4.06,3.43,2.81,4.77,8.84,4.74c2.33-0.01,4.65,0.02,6.98,0.03
	c18.03,0.07,36.07,0.04,54.1,0.17c17.68,0.13,36.61,0.8,54.16,0.18c-0.38-0.59-0.17-0.27-0.63-0.79L355.99,120.26
	c-1.41-1.57-1.09-1.49-1.06-4.35c0.15-14.67,0.21-29.75-0.01-44.41l-44.85,0L310.06,94.42z"/>
<path class="st1" d="M118.14,325.93l0,0.44c0.03,6.83,2.14,12.16,8.32,12.31c6.8,0.17,8.99-4.81,9.14-11.86
	c0.15-6.98-1.67-12.68-8.31-12.96C120.31,313.57,118.11,319.13,118.14,325.93 M195.48,335c0.44-1.91,6.22-13.03,7.21-15.22
	c0.98-2.19,6.68-13.38,6.52-15.29l-19.2-0.01c-4.93,6.18-10.85,29.42-18.34,30.52l7.1-14.97c0.99-2.13,6.9-13.93,6.94-15.43
	l-19.48-0.13c-4.05,5.66-11.41,29.23-17.54,30.1c0.3-2.74,13.01-26.24,13.28-29.98l-17.79,0.06l-0.03,4.98
	c-1.95-0.87-4.77-5.96-14.85-6.84c-31.94-2.79-31.23,45.45-6.54,46.38c8.37,0.31,12.13,0.54,18.2-3.74
	c3.86-2.72,1.12-3.47,7.63-3.42c39.22,0.32,79.16-0.06,118.45,0c6.71,0.01,9.12-0.97,13.47-8.28c2.88-4.83,10-18.09,9.19-24.36
	c-0.44-3.37-2.03-4.92-5.83-4.93c-7.23-0.01-14.65,0.21-21.85,0c0.24-2.16,3.96-9.31,4.88-11.15l5.05-11.4
	c1.82-4.55,9.64-19.08,9.66-22.07l-19.08-0.08c-1.99,2.38-10.37,21.86-13.28,27.74c-1.52,3.07-2.92,6.38-4.43,9.75
	c-2.33,5.22-16.98,37.3-17.94,37.75l-6.13,0.19l30.52-65.72c1.01-2.11,3.86-7.56,3.79-9.67l-19.57-0.01
	c-1.08,3.36-2.81,6.4-4.27,9.7c-5.67,12.82-12.86,26.96-18.29,39.26l-9.11,19.7C202.29,331.59,200.03,334.74,195.48,335z"/>
<path class="st1" d="M281.12,391.45c-0.27-10.43-8.29-21.68-17.49-13.66c-4.09,3.56-1.54,8.86,2.3,10.92
	C269.08,390.41,277.3,391.23,281.12,391.45 M301.36,355.81l7.85,12.75c6.7-0.08,12.97-1.89,19.89,0.25
	c10.29,3.2,8.93,16.18-12.85,19.9c-5.21,0.89-15.23,2.62-20.52,1.78c-2.15-4.15-1.26-6.54-6.64-13.94
	c-2.87-3.94-6.18-7.1-10.38-9.95c-9.02-6.13-22.37-5.33-29.72,1.93c-8.37,8.26-8.37,21.29,0.57,28.43
	c3.79,3.03,8.29,5.21,13.39,6.75c2.75,0.83,5.57,1.18,8.54,1.54c1.51,0.18,2.55,0.59,4.14,0.77c1.54,0.17,3.13-0.03,4.64,0.17
	c-0.48,2.86-4.39,7.87-5.77,9.05c-6.17,5.28-12.05,8.06-19.49,11.17c-1.96,0.82-3.38,1.41-5.37,2.15c-1.66,0.62-4.52,1.13-5.53,2.43
	c2.89,1.53,12.5,3.76,16.35,3.76c8.3,0,10.4-0.65,17.46-3.13c6.47-2.27,7.74-1.99,12.08-8.55c3.14-4.74,5.12-9.06,6.08-15.59
	c5.19-0.31,0.7,1.09,12.71-0.45c6.67-0.85,17.68-2.43,23.93-4.5c4.59-1.52,6.29-3.28,9.73-5.15c9.2,4.03,15.06,2.32,24.49,0.95
	c9.56-1.38,12.38-4.78,17.73-10.86c1.14,0.48,3.33,3.06,5.03,4.25c11.92,8.32,14.11-7.39,15.05-9.13c2.74,1.53,6.76,7.35,14.14,5.05
	c13.83-4.32,10.29-32.05-1.02-41.73l-11.42,2.9c0.69,2.07,3.23,4.9,4.57,8.19c1.61,3.96,1.95,7.41-0.93,9.89
	c-4.86-1.19-8.29-12.15-10.66-18.04c-1.73-0.13-9.39,1.97-11.33,2.7c0.44,2.14,2.47,3.63,3.72,8.81c1.33,5.51,0.37,6.83-0.96,11.39
	c-3.48-0.13-6.49-4.67-7.89-7.5c-0.73-1.47-1.59-3.75-2.15-5.62c-0.68-2.27-0.87-4.7-1.47-6.73c-1.81,0.06-11.02,5.66-12.71,7.01
	c0.48,1.36,8.89,12.12,3.72,18.92c-2.65,3.48-13.98,5.89-19.9,5.02c0.48-12.46-0.54-17.56-8.65-22.79c-6.49-4.19-16-6.17-24.79-6.49
	c0.82-1.76,4.17-2.9,5.78-3.87l18.87-10.89l-2.45-19.92c-1.28,0.6-27.28,26.16-28.52,27.5
	C308.98,348.22,302.34,353.91,301.36,355.81z"/>
<path class="st1" d="M212.94,389.86c-14.49-1.53-25.22,18.78-22.64,33.59c1.03,5.89,3.66,9.62,8.7,11.11
	c4.33,1.28,11.67-0.29,14.92-2.99c2.02-1.68,7.4-7.79,7.97-11.68c0.35-2.42-1.96-14.36-2.69-16.8
	C217.78,398.39,215.55,393.47,212.94,389.86 M213.17,370.47c-12.45,2.87-22.67,9.97-30.23,19.96c-9.27,12.25-7.63,28.05-1.2,39.73
	c3.72,6.76,10.13,12.93,19.1,14.64c14.17,2.7,26.86-4.21,32.74-16.76c2.09-4.47,2.93-8.28,3.61-13.88
	C239.35,396.37,224.1,367.96,213.17,370.47z"/>
<path class="st0" d="M157.34,437.68c0.83,2.56,9.47,11.08,12.02,13.18c39.98,32.94,94.86,15.16,136.72-2.22
	c40.16-16.68,93.44-43.8,136.3-20.23c2.81,1.54,5.39,3.17,7.75,4.86l7.41,5.67c-0.44-3.24-9.44-10.64-12.23-12.82
	c-40.33-31.46-93.44-12.75-135,5.07c-34.88,14.96-110.22,42.01-146.43,12.35L157.34,437.68z"/>
<path class="st1" d="M340.35,260.64l-19.8,0.06c-4.2,9.14-14.21,29.17-17.29,36.91c-0.7,1.76-1.86,3.29-2.56,5.01
	c-2.5,6.06-19.61,36.99-10.28,39.17c1.21,0.28,6.07,0.24,7.27-0.06c6.29-1.54,10.64-11.77,13.22-17.54
	c3.2-7.15,6.76-14.15,9.89-21.02L340.35,260.64z"/>
<path class="st0" d="M222.99,237.29l38.03,5.98c0.2-6.16,1.31-33.22,0.45-37.04l-37.84-0.83L222.99,237.29z"/>
<polygon class="st0" points="224.4,170.86 223.72,202.51 261.75,202.87 262.41,166.15 "/>
<polygon class="st0" points="191.34,232.11 219.11,236.6 219.76,205.3 192.04,204.7 "/>
<polygon class="st0" points="192.69,174.87 192.06,202.19 219.84,202.46 220.48,171.41 "/>
<path class="st1" d="M376.91,321.57c-3.16,0.01-6.07,2.24-7.2,4.12c-1.6,2.65-0.1,7.95,1.64,8.91
	C375.3,336.78,383.1,329.99,376.91,321.57 M371.52,312.14c-3.01,0.57-6.86,0.46-9.72,5.52c-4.25,7.53,1.61,17.65,4.61,23.92
	c1.46,3.05,2.28,2.34,5.24,1.54c7.9-2.13,22.43-6.55,17.9-19.36c-0.68-1.92-4.55-7.9-6.16-9.2
	C379.57,311.49,376.63,311.17,371.52,312.14z"/>
<path class="st2" d="M248.28,335.01c9.67,0.74,11.28-0.1,15.2-7.2c1.13-2.04,7.59-14.38,6.32-15.8c-0.92-1.03-9.06-0.63-10.15-0.11
	c-3.32,1.56-6.22,10.65-8.31,14.81C250.31,328.76,247.84,332.49,248.28,335.01"/>
<path class="st3" d="M562.13,292.26l-12.69-0.54l-17.9,11.24l0.28-7.74l12.22-7.22l-11.66-8.04l0.28-7.6l17.07,12.75l12.65,0.54
	L562.13,292.26z M558.26,333.65l-29.93-4.22l0.76-6.36l21.65-10.54l-20.06-2.83l0.73-6.08l29.92,4.22l-0.79,6.57l-21.25,10.39
	l19.67,2.77L558.26,333.65z M543.09,345.78l-11.84,1.56l9.89,7.16L543.09,345.78z M557.36,337.07l-1.55,6.94l-7.29,0.99l-2.86,12.76
	l6.08,4.4l-1.53,6.81l-26.55-20.09l1.52-6.81L557.36,337.07z M520.68,374.62l7.97,3.49l1.24-3.34c0.9-2.41,1.34-4.08,1.35-5.02
	c0.01-0.94-0.21-1.78-0.67-2.51c-0.45-0.73-1.09-1.28-1.92-1.65c-1.02-0.45-1.98-0.49-2.89-0.14c-0.91,0.36-1.63,0.99-2.17,1.91
	c-0.4,0.67-1.01,2.11-1.82,4.31L520.68,374.62z M541.64,390.95l-27.98-12.26l3.66-9.83c1.39-3.72,2.42-6.09,3.13-7.1
	c1.07-1.55,2.52-2.61,4.37-3.17c1.84-0.56,3.88-0.35,6.11,0.63c1.72,0.75,3.03,1.72,3.95,2.91c0.92,1.19,1.52,2.45,1.8,3.78
	c0.28,1.33,0.33,2.58,0.14,3.75c-0.28,1.58-0.93,3.75-1.96,6.52l-1.48,3.99l10.55,4.62L541.64,390.95z M525.94,425.1l-26.64-15.38
	l4.3-8.77l20.71,5.31l-15.66-15.61l4.31-8.79l26.64,15.38l-2.65,5.41l-20.98-12.08l18.18,17.8l-2.76,5.62l-23.75-6.43l20.96,12.12
	L525.94,425.1z M497.81,440.02c2.76,2.19,5.32,3.15,7.68,2.9c2.36-0.26,4.26-1.45,5.69-3.58c1.44-2.13,1.91-4.44,1.42-6.94
	c-0.5-2.49-2.16-4.86-4.99-7.1c-2.8-2.22-5.33-3.21-7.6-2.96c-2.27,0.24-4.15,1.46-5.64,3.67c-1.48,2.2-1.98,4.53-1.5,6.98
	C493.36,435.46,495,437.8,497.81,440.02z M494.27,445.65c-2.48-1.97-4.3-4.03-5.44-6.18c-0.84-1.58-1.4-3.29-1.69-5.12
	c-0.29-1.82-0.25-3.54,0.1-5.16c0.47-2.16,1.43-4.32,2.88-6.47c2.63-3.9,5.84-6.13,9.65-6.71c3.81-0.57,7.7,0.72,11.67,3.88
	c3.94,3.12,6.24,6.73,6.9,10.82c0.67,4.09-0.31,8.08-2.93,11.96c-2.65,3.93-5.86,6.19-9.64,6.75
	C501.99,450,498.16,448.74,494.27,445.65z M491.53,455.22l5.29-3.46c1.87,3.14,2.7,6.14,2.49,9.02c-0.21,2.87-1.39,5.61-3.55,8.23
	c-2.68,3.24-5.9,4.91-9.66,5.02c-3.76,0.1-7.41-1.57-10.95-5.01c-3.74-3.64-5.78-7.52-6.12-11.62c-0.34-4.11,0.9-7.87,3.72-11.29
	c2.47-2.99,5.28-4.62,8.45-4.9c1.88-0.18,3.95,0.34,6.21,1.54l-2.95,5.91c-1.4-0.84-2.82-1.13-4.25-0.88
	c-1.43,0.26-2.69,1.05-3.77,2.36c-1.5,1.81-2.11,3.86-1.84,6.15c0.26,2.29,1.73,4.73,4.41,7.34c2.84,2.76,5.32,4.17,7.44,4.23
	c2.13,0.06,3.92-0.79,5.39-2.57c1.08-1.31,1.63-2.81,1.64-4.5C493.48,459.09,492.84,457.24,491.53,455.22z M459.07,504.55
	l-18.97-25.11l4.73-4.2l15.73,20.83l11.7-10.41l3.23,4.28L459.07,504.55z M440.72,502.47l-9.45-7.9l2.43,12.63L440.72,502.47z
	 M456.52,507.12l-5.59,3.77l-5.84-4.84l-10.28,6.92l1.49,7.77l-5.49,3.7l-5.96-34.52l5.49-3.69L456.52,507.12z M422.86,528.68
	l-14.37-28.79l5.37-3.16l14.37,28.79L422.86,528.68z M393.98,522.28l4.13-1.96c2.68-1.27,4.29-2.18,4.87-2.75
	c0.56-0.56,0.92-1.23,1.05-2.01c0.14-0.78,0.02-1.62-0.34-2.52c-0.41-1.01-0.98-1.7-1.73-2.1c-0.75-0.39-1.6-0.45-2.57-0.18
	c-0.49,0.15-1.86,0.76-4.12,1.83l-4.36,2.07L393.98,522.28z M395.35,542.25l-12.08-30.01l11.76-5.57c2.95-1.4,5.21-2.15,6.77-2.24
	c1.56-0.1,3.01,0.35,4.37,1.35c1.36,1,2.4,2.38,3.11,4.16c0.91,2.26,1.05,4.4,0.42,6.44c-0.63,2.04-2.07,3.82-4.34,5.36
	c1.51,0.19,2.84,0.56,3.99,1.11c1.15,0.54,2.86,1.67,5.13,3.37l5.73,4.26l-6.68,3.16l-6.64-4.65c-2.37-1.65-3.95-2.65-4.72-3
	c-0.77-0.35-1.5-0.5-2.18-0.45c-0.69,0.06-1.67,0.39-2.96,1l-1.13,0.54l5.04,12.53L395.35,542.25z M377.24,548.41l-7.81-25.85
	l-8.49,3.02l-1.59-5.26l22.75-8.09l1.59,5.26l-8.45,3.01l7.81,25.85L377.24,548.41z M339.86,546.25l5.75-1.75
	c0.7,2.06,1.66,3.48,2.89,4.27c1.23,0.79,2.76,1.01,4.58,0.66c1.92-0.37,3.3-1.09,4.14-2.16c0.83-1.07,1.15-2.2,0.96-3.39
	c-0.12-0.77-0.44-1.37-0.93-1.83c-0.49-0.46-1.29-0.78-2.38-0.98c-0.74-0.14-2.41-0.3-5.01-0.5c-3.35-0.26-5.77-0.89-7.27-1.91
	c-2.11-1.43-3.37-3.43-3.78-5.99c-0.27-1.64-0.09-3.27,0.53-4.87c0.62-1.6,1.68-2.92,3.17-3.98c1.49-1.06,3.37-1.8,5.65-2.24
	c3.72-0.71,6.66-0.35,8.83,1.08c2.17,1.43,3.54,3.63,4.13,6.61l-5.98,1.38c-0.53-1.62-1.27-2.71-2.22-3.27
	c-0.96-0.57-2.27-0.69-3.95-0.37c-1.73,0.33-3.02,0.98-3.87,1.95c-0.55,0.62-0.76,1.35-0.62,2.19c0.12,0.77,0.53,1.36,1.21,1.79
	c0.87,0.55,2.82,0.92,5.85,1.12c3.03,0.19,5.31,0.55,6.83,1.09c1.53,0.53,2.8,1.41,3.81,2.65c1.01,1.24,1.69,2.87,2.02,4.91
	c0.3,1.85,0.11,3.67-0.58,5.47c-0.68,1.8-1.83,3.25-3.43,4.36c-1.6,1.12-3.7,1.92-6.28,2.42c-3.76,0.72-6.79,0.33-9.11-1.17
	C342.48,552.28,340.84,549.77,339.86,546.25z M310.79,526.55l6.1-0.45l1.1,17.7c0.17,2.81,0.36,4.63,0.56,5.44
	c0.34,1.32,1.02,2.35,2.04,3.09c1.02,0.74,2.37,1.05,4.06,0.93c1.7-0.13,2.97-0.6,3.79-1.43c0.82-0.83,1.28-1.8,1.39-2.94
	c0.11-1.13,0.08-2.99-0.08-5.57l-1.12-18.08l6.1-0.45l1.07,17.18c0.24,3.92,0.25,6.71,0.03,8.35c-0.23,1.64-0.75,3.06-1.56,4.24
	c-0.81,1.18-1.93,2.15-3.36,2.92c-1.44,0.77-3.34,1.24-5.71,1.42c-2.87,0.21-5.06,0.01-6.59-0.6c-1.52-0.61-2.75-1.46-3.69-2.56
	c-0.93-1.09-1.57-2.25-1.92-3.5c-0.52-1.84-0.88-4.6-1.11-8.25L310.79,526.55z M289.51,531.41l-0.8,21.66l4.53,0.2
	c1.69,0.07,2.92,0.02,3.68-0.15c1-0.22,1.83-0.65,2.5-1.26c0.68-0.61,1.24-1.64,1.7-3.08c0.47-1.44,0.75-3.44,0.84-5.97
	c0.09-2.53-0.04-4.47-0.4-5.85c-0.36-1.37-0.89-2.45-1.6-3.24c-0.71-0.79-1.62-1.35-2.75-1.66c-0.83-0.24-2.49-0.42-4.96-0.53
	L289.51,531.41z M283.61,525.61l11.1,0.49c2.5,0.11,4.41,0.4,5.7,0.87c1.74,0.64,3.22,1.71,4.42,3.21c1.21,1.49,2.1,3.3,2.68,5.43
	c0.58,2.12,0.81,4.71,0.7,7.77c-0.1,2.7-0.49,5-1.19,6.92c-0.84,2.35-1.98,4.23-3.44,5.64c-1.09,1.07-2.55,1.88-4.36,2.43
	c-1.36,0.41-3.16,0.56-5.4,0.46l-11.43-0.5L283.61,525.61z M252.34,553.1l5.75-32.14l5.81,1.22l8.34,24.11l3.85-21.54l5.54,1.17
	l-5.75,32.14l-5.99-1.26l-8.23-23.66l-3.78,21.13L252.34,553.1z M240.74,550.09l7.11-31.82l5.94,1.56l-7.11,31.82L240.74,550.09z
	 M205.57,525.58l5.72,1.85c-0.42,2.14-0.31,3.9,0.35,5.28c0.65,1.38,1.84,2.45,3.55,3.21c1.81,0.8,3.33,0.99,4.56,0.56
	c1.23-0.43,2.06-1.2,2.48-2.31c0.27-0.72,0.3-1.41,0.11-2.09c-0.19-0.67-0.71-1.41-1.53-2.2c-0.56-0.55-1.89-1.64-3.99-3.32
	c-2.7-2.15-4.44-4.09-5.21-5.82c-1.08-2.43-1.16-4.85-0.26-7.25c0.58-1.54,1.53-2.82,2.84-3.81c1.31-0.99,2.86-1.5,4.64-1.53
	c1.78-0.03,3.73,0.42,5.88,1.37c3.49,1.55,5.81,3.56,6.94,6.02c1.13,2.47,1.21,5.12,0.24,7.98l-5.74-2.3
	c0.35-1.67,0.26-3.02-0.27-4.06c-0.53-1.03-1.58-1.9-3.16-2.6c-1.62-0.72-3.04-0.92-4.23-0.59c-0.77,0.21-1.31,0.71-1.6,1.5
	c-0.27,0.72-0.22,1.46,0.15,2.21c0.46,0.97,1.93,2.41,4.4,4.33c2.47,1.91,4.22,3.54,5.25,4.87c1.03,1.34,1.67,2.81,1.92,4.45
	c0.25,1.63,0.01,3.41-0.7,5.32c-0.65,1.74-1.71,3.17-3.17,4.29c-1.46,1.12-3.14,1.69-5.04,1.71c-1.91,0.02-4.07-0.51-6.5-1.59
	c-3.53-1.57-5.91-3.65-7.14-6.26C204.82,532.2,204.67,529.13,205.57,525.58z M195.91,517.94l1.53-12.84l-8.83,8.64L195.91,517.94z
	 M200.17,535.08l-5.82-3.34l0.91-7.91l-10.69-6.15l-5.43,5.31l-5.71-3.28l24.48-22.98l5.7,3.28L200.17,535.08z M154.65,506.23
	l16.22-27.28l5.14,3.59l-13.46,22.63l12.71,8.9l-2.77,4.65L154.65,506.23z M139.78,493.14l15.75-21.17l-6.95-6.09l3.2-4.31
	l18.63,16.32l-3.2,4.3l-6.92-6.06l-15.75,21.17L139.78,493.14z M134.83,470.51l4.76-11.87l-10.7,5.62L134.83,470.51z M134.52,488.26
	l-4.73-4.97l2.91-7.32l-8.69-9.14l-6.58,3.46l-4.64-4.88l29.42-14.66l4.63,4.88L134.52,488.26z M90.6,432.53l24.78-18.69l3.49,5.44
	l-9.76,7.36l6.78,10.59l9.76-7.36l3.49,5.44l-24.78,18.69l-3.49-5.44l10.83-8.17l-6.78-10.59l-10.83,8.17L90.6,432.53z
	 M89.77,398.49c-2.98,1.82-4.85,3.95-5.62,6.38c-0.76,2.43-0.55,4.8,0.64,7.1c1.19,2.3,2.94,3.73,5.23,4.28
	c2.3,0.54,4.97-0.12,8.02-1.98c3.02-1.84,4.9-3.93,5.63-6.28c0.74-2.34,0.5-4.7-0.74-7.09c-1.23-2.38-2.98-3.84-5.24-4.38
	C95.45,395.99,92.8,396.64,89.77,398.49z M86.52,392.66c2.68-1.64,5.16-2.57,7.44-2.81c1.67-0.17,3.34-0.02,4.99,0.45
	c1.65,0.47,3.07,1.22,4.29,2.24c1.61,1.36,3.03,3.2,4.23,5.52c2.18,4.21,2.72,8.31,1.62,12.31c-1.1,4-3.8,7.3-8.09,9.92
	c-4.26,2.6-8.24,3.37-11.93,2.33c-3.7-1.04-6.64-3.66-8.81-7.85c-2.2-4.25-2.76-8.36-1.66-12.32
	C79.67,398.48,82.32,395.22,86.52,392.66z M62.91,371.15l28.26-11.48l2.14,6.21l-12.52,5.09l16.84,7.43l2.87,8.32l-15-7.1
	l-13.06,19.18l-2.76-8.01l10.36-13.83l-6.44-3.07l-8.55,3.47L62.91,371.15z M69.8,337.73c-3.3,0.99-5.58,2.57-6.87,4.73
	c-1.28,2.16-1.59,4.52-0.95,7.06c0.65,2.55,2.03,4.38,4.13,5.51c2.11,1.12,4.85,1.18,8.23,0.16c3.34-1,5.63-2.54,6.86-4.63
	c1.24-2.08,1.52-4.43,0.85-7.07c-0.67-2.63-2.04-4.5-4.11-5.61C75.86,336.78,73.15,336.72,69.8,337.73z M67.93,331.22
	c2.97-0.89,5.58-1.15,7.84-0.8c1.66,0.27,3.25,0.85,4.74,1.74c1.49,0.89,2.71,1.99,3.67,3.29c1.27,1.74,2.23,3.89,2.89,6.46
	c1.19,4.66,0.8,8.77-1.15,12.37c-1.96,3.59-5.3,6.1-10.05,7.52c-4.7,1.41-8.74,1.13-12.1-0.84c-3.37-1.97-5.64-5.28-6.82-9.92
	c-1.2-4.69-0.83-8.83,1.11-12.39C60,335.09,63.29,332.61,67.93,331.22z M50.03,304.05l29.95-3.99l0.74,6.58l-11.8,1.57l1.45,12.8
	l11.8-1.57l0.74,6.58l-29.95,3.99l-0.74-6.58l13.09-1.74l-1.45-12.8l-13.09,1.74L50.03,304.05z M58.81,271.58l0.73,6.43
	c-1.98,0.44-3.42,1.25-4.33,2.46c-0.91,1.2-1.34,2.81-1.3,4.81c0.05,2.12,0.49,3.71,1.34,4.76c0.85,1.05,1.83,1.57,2.94,1.54
	c0.72-0.02,1.32-0.26,1.81-0.72c0.49-0.46,0.91-1.27,1.25-2.4c0.24-0.78,0.63-2.54,1.21-5.3c0.74-3.55,1.68-6.05,2.84-7.5
	c1.62-2.04,3.63-3.09,6.02-3.15c1.54-0.04,2.99,0.4,4.36,1.3c1.36,0.91,2.41,2.24,3.15,4c0.74,1.76,1.14,3.88,1.19,6.4
	c0.09,4.09-0.68,7.2-2.32,9.31c-1.63,2.11-3.84,3.25-6.64,3.43l-0.35-6.62c1.55-0.32,2.66-0.95,3.32-1.89
	c0.66-0.94,0.98-2.33,0.94-4.18c-0.04-1.9-0.44-3.39-1.19-4.45c-0.49-0.68-1.12-1.02-1.9-1c-0.72,0.02-1.32,0.36-1.81,1.03
	c-0.64,0.85-1.27,2.88-1.9,6.11c-0.63,3.23-1.31,5.61-2.02,7.16c-0.72,1.56-1.71,2.79-2.99,3.69c-1.28,0.9-2.87,1.38-4.78,1.42
	c-1.73,0.04-3.36-0.43-4.89-1.44c-1.53-1.01-2.69-2.45-3.46-4.34c-0.78-1.89-1.19-4.25-1.25-7.1c-0.09-4.14,0.72-7.34,2.44-9.6
	C52.92,273.49,55.46,272.1,58.81,271.58z"/>
<path class="st4" d="M517.99,124.88c-0.69,0.53-1.44,0.73-2.23,0.6c-0.8-0.13-1.44-0.56-1.93-1.3c-0.49-0.74-0.66-1.54-0.54-2.41
	c0.13-0.87,0.54-1.57,1.23-2.1c0.69-0.53,1.44-0.71,2.23-0.55c0.8,0.16,1.44,0.61,1.93,1.34c0.49,0.74,0.67,1.53,0.54,2.37
	C519.1,123.67,518.68,124.36,517.99,124.88 M522.92,132.29c-0.69,0.53-1.44,0.73-2.24,0.59c-0.8-0.14-1.45-0.57-1.94-1.31
	c-0.49-0.74-0.66-1.53-0.52-2.38c0.14-0.85,0.56-1.54,1.25-2.07c0.69-0.53,1.43-0.72,2.21-0.58c0.78,0.14,1.42,0.58,1.91,1.31
	c0.49,0.74,0.67,1.53,0.54,2.37C524.02,131.07,523.61,131.76,522.92,132.29z M526.23,124.14c-0.69,0.53-1.44,0.72-2.25,0.57
	c-0.81-0.15-1.46-0.59-1.95-1.33c-0.49-0.74-0.66-1.53-0.5-2.36c0.15-0.83,0.58-1.52,1.27-2.05c0.67-0.51,1.41-0.7,2.22-0.57
	c0.81,0.13,1.46,0.54,1.92,1.24c0.49,0.74,0.66,1.54,0.53,2.41C527.33,122.91,526.92,123.61,526.23,124.14z M509.77,148.89
	c-1.18,0.9-2.18,0.74-2.99-0.49l-14.15-21.28l5.75-4.39l1.84,2.77l2.24-1.71c0.74-0.18,1.79,0.14,3.15,0.95
	c1.24,0.75,2.11,1.5,2.61,2.25l-4.65,3.55l1.6,2.4l3.92-3c0.79-0.16,1.84,0.15,3.17,0.9c1.24,0.73,2.12,1.47,2.65,2.26l-6.38,4.88
	l1.57,2.36l5.52-4.22c0.73-0.19,1.86,0.18,3.37,1.12c1.4,0.84,2.36,1.64,2.9,2.39L509.77,148.89z M493.49,129.35l-3.96-4.88
	c-4.11,2.98-7.36,3-9.75,0.05c-1.01-1.25-1.46-2.72-1.36-4.43c0.11-1.71,0.73-3.1,1.89-4.17c0.07-0.06,0.3-0.25,0.69-0.58
	c0.11,0.91,0.53,1.81,1.25,2.71c1.23,1.52,2.24,1.92,3.03,1.18l5.33-4.96c1.19-0.26,2.59-0.27,4.21-0.05
	c1.72,0.26,3.03,0.74,3.92,1.41l-3.76,3.54c-0.13,0.12-0.07,0.34,0.19,0.66l3.65,4.57L493.49,129.35z M480.32,112.13l-33.13-30.69
	l4.62-5.73l27.52,25.49c0.58,0.54,1.2,0.4,1.84-0.4c1.09-1.35,0.75-2.84-1.03-4.49l-20.86-19.32c0.15-0.25,0.26-0.42,0.31-0.49
	c1.31-1.63,3.05-2.1,5.23-1.41l24.45,7.53l0.24,2.02l-17.89-4.21l13.86,12.84c1.73,1.6,2.74,3.3,3.03,5.11
	c0.32,1.97-0.23,3.85-1.69,5.66L480.32,112.13z M448.54,83l-26.86-18.41c-0.63-0.43-0.56-1.27,0.18-2.53l3.59-6.01
	c2.11-1.26,4.6-1.69,7.46-1.28l-2.88,4.84c-0.48,0.81-0.28,1.53,0.64,2.15l12.81,8.78l2.13-3.57c0.87-0.53,2.09-0.92,3.65-1.18
	c1.48-0.24,2.76-0.28,3.82-0.12l-4.85,8.12l4.12,2.83L448.54,83z M443.78,51.91c-0.44,0.74-1.06,1.21-1.87,1.41
	c-0.8,0.2-1.55,0.07-2.24-0.4c-0.71-0.48-1.14-1.15-1.31-2.02c-0.17-0.87-0.03-1.67,0.42-2.42c0.46-0.76,1.08-1.24,1.86-1.42
	c0.78-0.18,1.53-0.02,2.24,0.46c0.7,0.48,1.13,1.14,1.3,1.98C444.37,50.36,444.23,51.16,443.78,51.91z M450.89,56.78
	c-0.44,0.74-1.06,1.21-1.87,1.42c-0.8,0.2-1.55,0.07-2.24-0.4c-0.71-0.49-1.15-1.16-1.32-2.01c-0.17-0.85-0.02-1.66,0.43-2.43
	c0.46-0.76,1.08-1.24,1.86-1.42c0.78-0.18,1.53-0.02,2.24,0.46c0.7,0.48,1.13,1.14,1.3,1.98C451.47,55.23,451.34,56.03,450.89,56.78
	z M407.06,54.46c-0.59,1.41-1.55,1.81-2.85,1.18l-10.48-5.07l2.9-6.9l7.3,3.53l1.62-3.86c0.79-0.66,1.94-1.23,3.45-1.73
	c1.44-0.47,2.7-0.7,3.77-0.72L407.06,54.46z M409.67,32.56c-0.35,0.83-0.89,1.41-1.64,1.72c-0.75,0.32-1.51,0.29-2.28-0.08
	c-0.77-0.37-1.3-0.97-1.58-1.79c-0.28-0.81-0.25-1.63,0.1-2.47c0.35-0.83,0.9-1.4,1.65-1.69c0.75-0.3,1.51-0.26,2.28,0.11
	c0.76,0.37,1.27,0.95,1.56,1.76C410.04,30.94,410.01,31.75,409.67,32.56z M417.36,36.28c-0.34,0.82-0.89,1.38-1.66,1.71
	c-0.77,0.32-1.52,0.3-2.28-0.07c-0.77-0.37-1.29-0.97-1.57-1.78c-0.28-0.81-0.25-1.63,0.1-2.47c0.35-0.83,0.9-1.4,1.65-1.69
	c0.74-0.3,1.5-0.27,2.27,0.1c0.77,0.37,1.29,0.96,1.57,1.75C417.74,34.63,417.7,35.45,417.36,36.28z M389.61,40.91l1.38-3.62
	c-1.34-0.56-2.38-0.73-3.12-0.5c-0.84,0.29-1.52,1.11-2.02,2.49L389.61,40.91z M395.65,51.59l-3.65-1.54
	c-1.34,3.65-2.53,5.97-3.57,6.96c-1.64,1.57-3.98,1.71-7.03,0.42c-4.3-1.81-5.54-5.18-3.74-10.09c0.67,1.16,1.74,2.04,3.21,2.66
	l3.04,1.28c1.12,0.47,1.95-0.02,2.48-1.47c0.08-0.22,0.19-0.53,0.32-0.94c0.13-0.41,0.23-0.71,0.31-0.92l-8.6-3.63l2.58-7.04
	c0.72-1.96,1.83-3.49,3.35-4.6c1.64-1.22,3.38-1.6,5.23-1.17c0.71,0.18,2.36,0.58,4.95,1.2c1.24-0.85,1.89-1.28,1.96-1.28
	c0.65-0.28,1.4-0.24,2.27,0.13l-4.18,11.45l3.65,1.54L395.65,51.59z M383.23,10.16l-8.39,31.75c-0.24,0.92-0.94,1.21-2.08,0.86
	l-7.5-2.28l1.92-7.28l2.43,0.74c0.97,0.15,1.56-0.2,1.8-1.08l5.05-19.14c0.7-0.8,1.74-1.57,3.15-2.27
	C380.92,10.8,382.12,10.36,383.23,10.16z M350.09,43.81c-0.2,0.92-0.63,1.59-1.3,2.04c-0.67,0.45-1.42,0.58-2.26,0.37
	c-0.82-0.2-1.44-0.67-1.86-1.4c-0.43-0.73-0.54-1.54-0.35-2.44c0.18-0.84,0.62-1.49,1.31-1.95c0.7-0.46,1.44-0.59,2.23-0.4
	c0.76,0.19,1.37,0.66,1.82,1.41C350.13,42.21,350.27,42.99,350.09,43.81z M358.36,45.85c-0.2,0.92-0.63,1.59-1.3,2.04
	c-0.67,0.45-1.43,0.58-2.27,0.37c-0.82-0.2-1.44-0.67-1.86-1.4c-0.42-0.73-0.54-1.54-0.34-2.44c0.18-0.85,0.62-1.51,1.3-1.96
	c0.68-0.46,1.43-0.59,2.24-0.39c0.79,0.2,1.41,0.66,1.85,1.4C358.41,44.22,358.54,45.01,358.36,45.85z M367.39,40.85l-22.75-5.61
	l1.58-7.38l11.54,2.85l0.89-4.13c0.63-0.8,1.66-1.6,3.06-2.39c1.3-0.74,2.5-1.24,3.57-1.52l-2.02,9.4l5.71,1.41L367.39,40.85z
	 M346.28,35.36L321.56,32l0.89-7.51L336,26.33c0.84,0.11,1.35-0.56,1.52-2.01c0.11-0.97-0.61-1.55-2.17-1.76l-9.69-1.32l1.01-8.57
	c0.97,0.13,1.61,0.42,1.91,0.87c0.36,0.6,0.73,1.21,1.09,1.83c0.15,0.16,2.74,0.63,7.79,1.38l2.58,0.35
	c3.07,0.45,4.44,2.11,4.1,4.99l-0.24,2.05c-0.2,1.66-0.55,2.71-1.05,3.13l4.33,0.59L346.28,35.36z M317.23,31.57l-5.31-0.14
	l0.24-10.32c-2.72-0.07-4.11,1.25-4.17,3.98l-0.17,7.26c-0.06,2.68-0.98,4.77-2.76,6.29c-1.66,1.42-3.75,2.1-6.3,2.03
	c-6.69-0.18-10.15-2.95-10.37-8.31c-0.04-0.84-0.04-2.29,0.01-4.34c0.53-0.91,1.39-1.9,2.57-2.96c1.19-1.07,2.25-1.79,3.19-2.18
	L294,30.05c-0.06,2.42,1.5,3.67,4.67,3.76c0.21,0.01,0.56-0.07,1-0.22c1.7-0.55,2.57-1.67,2.61-3.37l0.16-6.68
	c0.05-1.96,0.71-3.8,2-5.51c1.28-1.7,2.81-2.72,4.59-3.05c0.76-0.17,2.49-0.45,5.19-0.85c0.78-0.82,1.28-1.29,1.49-1.42
	c0.45-0.28,1.11-0.42,1.97-0.4L317.23,31.57z M258.15,10.95c0.11,0.91-0.09,1.7-0.57,2.39c-0.48,0.69-1.15,1.09-1.98,1.21
	c-0.84,0.11-1.58-0.1-2.23-0.64c-0.65-0.53-1.03-1.25-1.14-2.16c-0.11-0.9,0.09-1.69,0.6-2.37c0.51-0.68,1.18-1.07,2.02-1.19
	c0.84-0.11,1.57,0.09,2.2,0.61C257.67,9.33,258.04,10.05,258.15,10.95z M266.56,9.81c0.11,0.91-0.09,1.7-0.58,2.39
	c-0.49,0.69-1.15,1.1-1.99,1.21c-0.84,0.11-1.57-0.1-2.2-0.64c-0.63-0.54-1-1.25-1.11-2.16c-0.11-0.9,0.09-1.69,0.57-2.36
	c0.49-0.67,1.15-1.07,1.99-1.18c0.84-0.11,1.57,0.09,2.21,0.61C266.08,8.19,266.45,8.91,266.56,9.81z M261.44,2.82
	c0.11,0.9-0.09,1.7-0.6,2.39c-0.51,0.69-1.18,1.1-2.01,1.21c-0.84,0.11-1.56-0.1-2.18-0.64c-0.61-0.54-0.98-1.27-1.08-2.17
	c-0.1-0.87,0.09-1.66,0.58-2.37c0.49-0.71,1.13-1.12,1.93-1.23c0.84-0.11,1.58,0.1,2.23,0.64C260.95,1.2,261.33,1.92,261.44,2.82z
	 M273.97,30.08c0.18,1.54-0.42,2.4-1.82,2.59l-24.18,3.29l-0.89-7.51l3.15-0.43l-0.35-2.92c0.2-0.79,0.96-1.62,2.27-2.53
	c1.2-0.82,2.23-1.28,3.09-1.4l0.72,6.07l2.73-0.37l-0.61-5.12c0.24-0.82,1-1.67,2.24-2.57c1.18-0.83,2.22-1.31,3.11-1.43l0.99,8.34
	l2.68-0.36l-0.85-7.21c0.19-0.78,1.03-1.67,2.51-2.65c1.36-0.92,2.47-1.45,3.34-1.6L273.97,30.08z M249.98,35.48l-46.5,14.12
	l-1.92-7.28l35-10.63c0.74-0.22,0.97-0.85,0.7-1.87c-0.45-1.72-1.81-2.23-4.06-1.55l-26.52,8.05c-0.11-0.27-0.19-0.46-0.21-0.55
	c-0.55-2.07,0.04-3.88,1.78-5.46l19.31-17.75l1.71,0.9l-13.11,13.71l17.62-5.35c2.2-0.67,4.08-0.63,5.65,0.1
	c1.71,0.8,2.88,2.35,3.49,4.65l0.78,2.96l4.38-1.33L249.98,35.48z M194.65,47.27l-1.46-3.59c-1.31,0.63-2.15,1.32-2.51,2.05
	c-0.4,0.85-0.32,1.94,0.25,3.29L194.65,47.27z M206.01,50.08l-3.57,1.73c1.5,3.57,2.22,6.11,2.15,7.6
	c-0.09,2.35-1.64,4.25-4.62,5.69c-4.21,2.04-7.33,0.64-9.35-4.17c1.24,0.29,2.58,0.09,4.02-0.6l2.97-1.44
	c1.1-0.53,1.35-1.51,0.75-2.93c-0.09-0.22-0.22-0.51-0.4-0.9c-0.18-0.39-0.31-0.67-0.4-0.88l-8.42,4.07l-2.9-6.9
	c-0.81-1.92-1.05-3.85-0.73-5.78c0.33-2.11,1.29-3.72,2.87-4.83c0.62-0.42,2.03-1.41,4.26-2.96c0.3-1.55,0.47-2.34,0.51-2.4
	c0.27-0.7,0.82-1.24,1.67-1.65l4.73,11.2l3.57-1.73L206.01,50.08z M178.35,55.73l-1.96-4.11c-1.39,0.76-2.2,1.6-2.44,2.51
	c-0.25,0.92-0.01,2.12,0.71,3.62L178.35,55.73z M186.29,59.89l-12.96,7.09l-4.16-8.95c-0.06-0.12-0.13-0.35-0.24-0.71
	c-0.39-1.6-0.38-3.14,0.03-4.65c0.44-1.6,1.25-2.86,2.44-3.79l4.18-3.24c0.19-1.34,0.33-2.16,0.41-2.42
	c0.24-0.71,0.76-1.28,1.55-1.71L186.29,59.89z M159.29,76.73l-4.6,3.5l-15.66-23.68c-0.15-0.97-0.02-2.31,0.37-4.03
	c0.35-1.59,0.8-2.88,1.31-3.88L159.29,76.73z M140.96,79.15c-1.07-1.33-2.49-1.19-4.25,0.44L123.5,91.83l2.57,3.19l14.99-13.89
	C141.63,80.6,141.6,79.94,140.96,79.15z M149.53,80.77c0.77,0.96,0.79,1.79,0.03,2.49l-26.22,24.29l-4.62-5.73l2.65-2.46
	L107.9,82.64c-0.11-0.78,0.05-2.12,0.49-4.04c0.44-1.92,0.87-3.23,1.29-3.93l11.17,13.86c-0.17-1.35,0.46-2.69,1.9-4.02l14.86-13.76
	c0.59-0.54,1.36-0.7,2.33-0.49c0.91,0.19,1.62,0.61,2.14,1.26L149.53,80.77z M125.06,106.15l-9.07,10.17l-5.1-5.23l1.73-1.95
	c0.58-0.9,0.59-1.65-0.01-2.26L99.21,93.15c-0.33-1.03-0.48-2.38-0.4-4.04c0.06-1.55,0.26-2.89,0.61-4.03l18.12,18.57l2.42-2.72
	L125.06,106.15z M116.57,113.97l-13.79,18.76c2.23,2.41,3.37,5.13,3.41,8.15c0.04,2.92-0.95,5.73-2.94,8.45
	c-1.77,2.41-3.87,3.73-6.3,3.96c-2.38,0.24-4.7-0.58-6.95-2.49c-1.28-1.08-2.07-2.2-2.35-3.35c-0.27-1.15-0.15-2.56,0.38-4.24
	c2.37,1.91,4.07,3.05,5.11,3.4c1.98,0.68,3.71,0.02,5.18-1.99c0.88-1.2,1.22-2.56,0.99-4.08c-0.26-1.72-0.88-2.99-1.87-3.83
	l-6.01-5.07c-0.38-0.74-0.35-2.04,0.07-3.9c0.4-1.73,0.88-2.98,1.43-3.76l4.48,3.79l1.67-2.27l-3.78-3.2
	c-0.41-0.75-0.45-1.92-0.11-3.52c0.32-1.46,0.76-2.57,1.31-3.36l6.16,5.2l1.7-2.31l-5.33-4.51c-0.34-0.29-0.34-1.44-0.01-3.45
	c0.29-1.78,0.75-3.11,1.39-3.98l7.85,6.63l2.74-3.73L116.57,113.97z"/>
</svg>
